# xmcd
#
# Track frame offsets: 
#        150
#        11555
#        23884
#        34549
#        43529
#        54138
#        67096
#        79974
#        89523
#        101815
#        114972
#        127422
#        140044
#        153182
#        162719
#        174903
#        186644
#        198233
#        210654
#        225547
#        237330
#        250611
#        264662
#        283978
#        296987
#        312275
#
# Disc length: 4323 seconds
#
# Revision: 0
# Processed by: cddbd v1.5.2PL0 Copyright (c) Steve Scherf et al.
# Submitted via: ExactAudioCopyFreeDBPlugin 1.0
#
DISCID=8310e11a
DTITLE=Various Artist - The Complete Stax-Volt Singles, 1959-1975
DYEAR=2018
DGENRE=Soul
TTITLE0=Poor Little Rich Kids - Stop it, Quit It
TTITLE1=Lonnie Duvall - Cigarettes
TTITLE2=Poor Little Rich Kids - It's Mighty Clear
TTITLE3=The Honey Jug - Warm City Baby
TTITLE4=The Goodees - For a Little While
TTITLE5=The Honey Jug - For You Love
TTITLE6=Kangaroo's - Groovy Day
TTITLE7=Bobby Whitlock - And I Love You
TTITLE8=Southwest F.O.B. - Smell of Incense
TTITLE9=The Goodees - Condition Red
TTITLE10=Bill Lee Riley - Family Portrait
TTITLE11=This Generation - The Children Have Your Tongue
TTITLE12=Bill Lee Riley - Show Me Your Soul
TTITLE13=The Waters - Day in Day Out
TTITLE14=The Village Sound - Hey Jack (Don't Highjack My Plane)
TTITLE15=The Cheques - Cool My Desire
TTITLE16=The Goodees - Goodies
TTITLE17=Paris Pilot - Miss Rita Famous
TTITLE18=The Knowbody Else - Someone Something
TTITLE19=Cargoe - Feel Alright
TTITLE20=Big Star - In the Street
TTITLE21=Cargoe - I Love You Anyway
TTITLE22=The Hot Dogs - Say What You Mean
TTITLE23=Big Star - O My Soul
TTITLE24=The Hot Dogs - I Walk the Line
TTITLE25=Big Star - September Gurls
EXTD=
EXTT0=
EXTT1=
EXTT2=
EXTT3=
EXTT4=
EXTT5=
EXTT6=
EXTT7=
EXTT8=
EXTT9=
EXTT10=
EXTT11=
EXTT12=
EXTT13=
EXTT14=
EXTT15=
EXTT16=
EXTT17=
EXTT18=
EXTT19=
EXTT20=
EXTT21=
EXTT22=
EXTT23=
EXTT24=
EXTT25=
PLAYORDER=
